# xmcd
#
# Track frame offsets:
#	150
#	13224
#	33825
#	49375
#	61911
#	77203
#	92803
#	104013
#	119963
#	135220
#	152861
#	172609
#
# Disc length: 2475 seconds
#
# Revision: 1970422648
# Processed by: cddbd v1.5.2PL0 Copyright (c) Steve Scherf et al.
# Submitted via: EZCDAudioConverter 8.0.1.1
#
DISCID=9d09a90c
DTITLE=Jared Tyler - Dirt On Your Hands
DYEAR=2017
DGENRE=Country
TTITLE0=Death Of Me
TTITLE1=Dressed In White
TTITLE2=Dirt On Your Hands
TTITLE3=Heart Wide Open
TTITLE4=Waltzing Around With My Shadow
TTITLE5=Gwendolyn
TTITLE6=Lucky I Am
TTITLE7=Fort Gibson Lake
TTITLE8=A Little Tonight
TTITLE9=The Door (with Malcolm Holcombe)
TTITLE10=Norway
TTITLE11=Love Of You
EXTD=
EXTT0=
EXTT1=
EXTT2=
EXTT3=
EXTT4=
EXTT5=
EXTT6=
EXTT7=
EXTT8=
EXTT9=
EXTT10=
EXTT11=
PLAYORDER=
